<mxfile host="Electron" modified="2024-01-29T12:39:07.659Z" agent="Mozilla/5.0 (Windows NT 10.0; Win64; x64) AppleWebKit/537.36 (KHTML, like Gecko) draw.io/22.0.2 Chrome/114.0.5735.289 Electron/25.8.4 Safari/537.36" etag="H0U0jaWaHDlTqbWWDg_J" version="22.0.2" type="device">
  <diagram id="8ZcgzSny7F9yCxGkNctQ" name="Page-1">
    <mxGraphModel dx="1036" dy="606" grid="0" gridSize="10" guides="1" tooltips="1" connect="1" arrows="1" fold="1" page="1" pageScale="1" pageWidth="827" pageHeight="1169" math="0" shadow="0">
      <root>
        <mxCell id="0" />
        <mxCell id="1" parent="0" />
        <mxCell id="uGBWvIRG8zGSUJkssSB8-12" style="edgeStyle=none;rounded=0;orthogonalLoop=1;jettySize=auto;html=1;exitX=1;exitY=0.5;exitDx=0;exitDy=0;entryX=0;entryY=0.5;entryDx=0;entryDy=0;shadow=0;" parent="1" source="uGBWvIRG8zGSUJkssSB8-1" target="uGBWvIRG8zGSUJkssSB8-6" edge="1">
          <mxGeometry relative="1" as="geometry" />
        </mxCell>
        <mxCell id="uGBWvIRG8zGSUJkssSB8-18" style="edgeStyle=none;rounded=0;orthogonalLoop=1;jettySize=auto;html=1;exitX=1;exitY=0;exitDx=0;exitDy=0;entryX=0;entryY=1;entryDx=0;entryDy=0;shadow=0;" parent="1" source="uGBWvIRG8zGSUJkssSB8-1" target="uGBWvIRG8zGSUJkssSB8-4" edge="1">
          <mxGeometry relative="1" as="geometry" />
        </mxCell>
        <mxCell id="uGBWvIRG8zGSUJkssSB8-1" value="V1.0" style="ellipse;whiteSpace=wrap;html=1;aspect=fixed;direction=east;shadow=0;fillColor=#dae8fc;strokeColor=#6c8ebf;" parent="1" vertex="1">
          <mxGeometry x="280" y="300" width="40" height="40" as="geometry" />
        </mxCell>
        <mxCell id="uGBWvIRG8zGSUJkssSB8-10" value="" style="edgeStyle=none;rounded=0;orthogonalLoop=1;jettySize=auto;html=1;shadow=0;" parent="1" source="uGBWvIRG8zGSUJkssSB8-4" target="uGBWvIRG8zGSUJkssSB8-5" edge="1">
          <mxGeometry relative="1" as="geometry" />
        </mxCell>
        <mxCell id="uGBWvIRG8zGSUJkssSB8-4" value="V1.0a" style="ellipse;whiteSpace=wrap;html=1;aspect=fixed;direction=east;shadow=0;fillColor=#fff2cc;strokeColor=#d6b656;" parent="1" vertex="1">
          <mxGeometry x="340" y="240" width="40" height="40" as="geometry" />
        </mxCell>
        <mxCell id="uGBWvIRG8zGSUJkssSB8-11" value="" style="edgeStyle=none;rounded=0;orthogonalLoop=1;jettySize=auto;html=1;shadow=0;" parent="1" source="uGBWvIRG8zGSUJkssSB8-5" target="uGBWvIRG8zGSUJkssSB8-7" edge="1">
          <mxGeometry relative="1" as="geometry" />
        </mxCell>
        <mxCell id="uGBWvIRG8zGSUJkssSB8-19" style="edgeStyle=none;rounded=0;orthogonalLoop=1;jettySize=auto;html=1;exitX=1;exitY=1;exitDx=0;exitDy=0;entryX=0;entryY=0;entryDx=0;entryDy=0;shadow=0;" parent="1" source="uGBWvIRG8zGSUJkssSB8-5" target="uGBWvIRG8zGSUJkssSB8-6" edge="1">
          <mxGeometry relative="1" as="geometry" />
        </mxCell>
        <mxCell id="uGBWvIRG8zGSUJkssSB8-5" value="V1.0b" style="ellipse;whiteSpace=wrap;html=1;aspect=fixed;direction=east;shadow=0;fillColor=#fff2cc;strokeColor=#d6b656;" parent="1" vertex="1">
          <mxGeometry x="420" y="240" width="40" height="40" as="geometry" />
        </mxCell>
        <mxCell id="uGBWvIRG8zGSUJkssSB8-13" value="" style="edgeStyle=none;rounded=0;orthogonalLoop=1;jettySize=auto;html=1;shadow=0;" parent="1" source="uGBWvIRG8zGSUJkssSB8-6" target="uGBWvIRG8zGSUJkssSB8-8" edge="1">
          <mxGeometry relative="1" as="geometry" />
        </mxCell>
        <mxCell id="uGBWvIRG8zGSUJkssSB8-6" value="V1.1" style="ellipse;whiteSpace=wrap;html=1;aspect=fixed;direction=east;shadow=0;fillColor=#dae8fc;strokeColor=#6c8ebf;" parent="1" vertex="1">
          <mxGeometry x="480" y="300" width="40" height="40" as="geometry" />
        </mxCell>
        <mxCell id="uGBWvIRG8zGSUJkssSB8-20" style="edgeStyle=none;rounded=0;orthogonalLoop=1;jettySize=auto;html=1;exitX=1;exitY=1;exitDx=0;exitDy=0;entryX=0;entryY=0;entryDx=0;entryDy=0;shadow=0;" parent="1" source="uGBWvIRG8zGSUJkssSB8-7" target="uGBWvIRG8zGSUJkssSB8-8" edge="1">
          <mxGeometry relative="1" as="geometry" />
        </mxCell>
        <mxCell id="uGBWvIRG8zGSUJkssSB8-7" value="V1.1a" style="ellipse;whiteSpace=wrap;html=1;aspect=fixed;direction=east;shadow=0;fillColor=#fff2cc;strokeColor=#d6b656;" parent="1" vertex="1">
          <mxGeometry x="500" y="240" width="40" height="40" as="geometry" />
        </mxCell>
        <mxCell id="uGBWvIRG8zGSUJkssSB8-8" value="V2" style="ellipse;whiteSpace=wrap;html=1;aspect=fixed;direction=east;shadow=0;fillColor=#dae8fc;strokeColor=#6c8ebf;" parent="1" vertex="1">
          <mxGeometry x="560" y="300" width="40" height="40" as="geometry" />
        </mxCell>
        <mxCell id="uGBWvIRG8zGSUJkssSB8-16" value="" style="endArrow=none;dashed=1;html=1;dashPattern=1 3;strokeWidth=2;rounded=0;" parent="1" edge="1">
          <mxGeometry width="50" height="50" relative="1" as="geometry">
            <mxPoint x="210" y="290" as="sourcePoint" />
            <mxPoint x="620" y="290" as="targetPoint" />
          </mxGeometry>
        </mxCell>
        <mxCell id="uGBWvIRG8zGSUJkssSB8-22" value="Main" style="text;html=1;strokeColor=none;fillColor=#dae8fc;align=center;verticalAlign=middle;whiteSpace=wrap;rounded=1;shadow=0;" parent="1" vertex="1">
          <mxGeometry x="210" y="307.5" width="50" height="25" as="geometry" />
        </mxCell>
        <mxCell id="uGBWvIRG8zGSUJkssSB8-23" value="Dev" style="text;html=1;strokeColor=none;fillColor=#fff2cc;align=center;verticalAlign=middle;whiteSpace=wrap;rounded=1;shadow=0;" parent="1" vertex="1">
          <mxGeometry x="210" y="247.5" width="50" height="25" as="geometry" />
        </mxCell>
      </root>
    </mxGraphModel>
  </diagram>
</mxfile>
